<svg width="142" height="46" viewBox="0 0 142 46" fill="none" xmlns="http://www.w3.org/2000/svg">
<path d="M0 10.5C0 7.23841 0 5.60761 0.532843 4.32122C1.2433 2.60602 2.60602 1.2433 4.32122 0.532843C5.60761 0 7.23841 0 10.5 0H131.5C134.762 0 136.392 0 137.679 0.532843C139.394 1.2433 140.757 2.60602 141.467 4.32122C142 5.60761 142 7.23841 142 10.5V35.5C142 38.7616 142 40.3924 141.467 41.6788C140.757 43.394 139.394 44.7567 137.679 45.4672C136.392 46 134.762 46 131.5 46H10.5C7.23841 46 5.60761 46 4.32122 45.4672C2.60602 44.7567 1.2433 43.394 0.532843 41.6788C0 40.3924 0 38.7616 0 35.5V10.5Z" fill="white"/>
<path d="M96.4732 22.081V24.7157H94.7739V26.4435H96.4732V32.3142C96.4732 34.3189 97.4064 35.1207 99.754 35.1207C100.167 35.1207 100.559 35.073 100.903 35.0157V33.307C100.609 33.3357 100.422 33.3547 100.098 33.3547C99.0467 33.3547 98.5851 32.8774 98.5851 31.7892V26.4435H100.903V24.7157H98.5851V22.081H96.4732Z" fill="black"/>
<path d="M106.884 35.2639C110.007 35.2639 111.923 33.2306 111.923 29.8609C111.923 26.5103 109.997 24.4675 106.884 24.4675C103.76 24.4675 101.835 26.5103 101.835 29.8609C101.835 33.2306 103.75 35.2639 106.884 35.2639ZM106.884 33.4407C105.047 33.4407 104.015 32.1329 104.015 29.8609C104.015 27.6081 105.047 26.2908 106.884 26.2908C108.711 26.2908 109.752 27.6081 109.752 29.8609C109.752 32.1233 108.711 33.4407 106.884 33.4407Z" fill="black"/>
<path d="M113.561 35.0635H115.673V28.9254C115.673 27.4649 116.803 26.4817 118.404 26.4817C118.777 26.4817 119.406 26.5485 119.583 26.6058V24.5821C119.357 24.5248 118.954 24.4961 118.64 24.4961C117.245 24.4961 116.056 25.2407 115.752 26.2621H115.595V24.668H113.561V35.0635Z" fill="black"/>
<path d="M124.826 26.2144C126.388 26.2144 127.41 27.274 127.459 28.9064H122.056C122.174 27.2836 123.265 26.2144 124.826 26.2144ZM127.449 32.257C127.056 33.0684 126.182 33.517 124.905 33.517C123.215 33.517 122.125 32.362 122.056 30.5387V30.4242H129.61V29.7082C129.61 26.4435 127.812 24.4675 124.836 24.4675C121.821 24.4675 119.905 26.5772 119.905 29.8991C119.905 33.2211 121.781 35.2639 124.846 35.2639C127.292 35.2639 129.001 34.1184 129.482 32.257H127.449Z" fill="black"/>
<path d="M82.624 31.2246C82.7869 33.7772 84.9757 35.4097 88.2336 35.4097C91.7154 35.4097 93.8941 33.6981 93.8941 30.9673C93.8941 28.8203 92.6521 27.633 89.6386 26.9503L88.0198 26.5645C86.1058 26.1291 85.3321 25.5454 85.3321 24.5263C85.3321 23.2401 86.5334 22.3991 88.3354 22.3991C90.0458 22.3991 91.2268 23.2203 91.4406 24.5362H93.66C93.5276 22.1319 91.3489 20.4401 88.366 20.4401C85.159 20.4401 83.021 22.1319 83.021 24.6747C83.021 26.7723 84.2325 28.0189 86.8897 28.6224L88.7834 29.0677C90.7279 29.5129 91.5831 30.1659 91.5831 31.2543C91.5831 32.5207 90.2392 33.4408 88.4067 33.4408C86.4418 33.4408 85.0775 32.5801 84.8841 31.2246H82.624Z" fill="black"/>
<path d="M60.7473 24.4961C59.2936 24.4961 58.0363 25.2025 57.388 26.3862H57.2308V24.668H55.1975V38.5191H57.3094V33.4884H57.4764C58.0363 34.5862 59.2444 35.2353 60.7669 35.2353C63.4682 35.2353 65.1871 33.1638 65.1871 29.8609C65.1871 26.5581 63.4682 24.4961 60.7473 24.4961ZM60.1481 33.3929C58.38 33.3929 57.2701 32.0374 57.2701 29.8705C57.2701 27.694 58.38 26.3385 60.1579 26.3385C61.9456 26.3385 63.0163 27.6654 63.0163 29.8609C63.0163 32.066 61.9456 33.3929 60.1481 33.3929Z" fill="black"/>
<path d="M72.5768 24.4961C71.1231 24.4961 69.8658 25.2025 69.2175 26.3862H69.0603V24.668H67.0271V38.5191H69.1389V33.4884H69.3059C69.8658 34.5862 71.074 35.2353 72.5965 35.2353C75.2977 35.2353 77.0166 33.1638 77.0166 29.8609C77.0166 26.5581 75.2977 24.4961 72.5768 24.4961ZM71.9777 33.3929C70.2096 33.3929 69.0996 32.0374 69.0996 29.8705C69.0996 27.694 70.2096 26.3385 71.9875 26.3385C73.7752 26.3385 74.8459 27.6654 74.8459 29.8609C74.8459 32.066 73.7752 33.3929 71.9777 33.3929Z" fill="black"/>
<path d="M51.4085 35.0635H53.8315L48.5273 20.7864H46.0737L40.7695 35.0635H43.1111L44.4652 31.274H50.0646L51.4085 35.0635ZM47.1835 23.3786H47.3565L49.4843 29.414H45.0455L47.1835 23.3786Z" fill="black"/>
<path d="M42.1875 10.0176V16.905H44.7463C46.8581 16.905 48.0811 15.6401 48.0811 13.4398C48.0811 11.2729 46.8483 10.0176 44.7463 10.0176H42.1875ZM43.2876 10.9913H44.6235C46.092 10.9913 46.9613 11.8981 46.9613 13.4541C46.9613 15.034 46.1067 15.9313 44.6235 15.9313H43.2876V10.9913Z" fill="black"/>
<path d="M51.8264 17.0052C53.3882 17.0052 54.3459 15.9886 54.3459 14.3037C54.3459 12.6284 53.3833 11.607 51.8264 11.607C50.2646 11.607 49.302 12.6284 49.302 14.3037C49.302 15.9886 50.2597 17.0052 51.8264 17.0052ZM51.8264 16.0936C50.908 16.0936 50.3923 15.4397 50.3923 14.3037C50.3923 13.1773 50.908 12.5186 51.8264 12.5186C52.7399 12.5186 53.2605 13.1773 53.2605 14.3037C53.2605 15.4349 52.7399 16.0936 51.8264 16.0936Z" fill="black"/>
<path d="M62.5016 11.7072H61.4457L60.4929 15.6735H60.4094L59.3093 11.7072H58.2975L57.1974 15.6735H57.1188L56.1611 11.7072H55.0905L56.5638 16.905H57.6492L58.7494 13.0771H58.8329L59.9379 16.905H61.0331L62.5016 11.7072Z" fill="black"/>
<path d="M63.7176 16.905H64.7736V13.8646C64.7736 13.0532 65.2696 12.5473 66.0505 12.5473C66.8314 12.5473 67.2047 12.9625 67.2047 13.7978V16.905H68.2606V13.54C68.2606 12.3038 67.6025 11.607 66.409 11.607C65.6036 11.607 65.0732 11.9554 64.8129 12.5329H64.7343V11.7072H63.7176V16.905Z" fill="black"/>
<path d="M69.9236 16.905H70.9795V9.67871H69.9236V16.905Z" fill="black"/>
<path d="M74.9508 17.0052C76.5125 17.0052 77.4702 15.9886 77.4702 14.3037C77.4702 12.6284 76.5076 11.607 74.9508 11.607C73.389 11.607 72.4263 12.6284 72.4263 14.3037C72.4263 15.9886 73.3841 17.0052 74.9508 17.0052ZM74.9508 16.0936C74.0323 16.0936 73.5167 15.4397 73.5167 14.3037C73.5167 13.1773 74.0323 12.5186 74.9508 12.5186C75.8643 12.5186 76.3849 13.1773 76.3849 14.3037C76.3849 15.4349 75.8643 16.0936 74.9508 16.0936Z" fill="black"/>
<path d="M80.6164 16.127C80.0418 16.127 79.6243 15.8549 79.6243 15.3872C79.6243 14.929 79.9583 14.6855 80.695 14.6378L82.0014 14.5567V14.991C82.0014 15.6354 81.4121 16.127 80.6164 16.127ZM80.3463 16.9909C81.0486 16.9909 81.6331 16.6949 81.9523 16.1747H82.0358V16.905H83.0524V13.3539C83.0524 12.2561 82.2961 11.607 80.9553 11.607C79.7422 11.607 78.8778 12.1797 78.7698 13.0723H79.7913C79.9092 12.7048 80.3168 12.4948 80.9062 12.4948C81.6281 12.4948 82.0014 12.805 82.0014 13.3539V13.8025L80.5526 13.8837C79.2805 13.96 78.5635 14.4994 78.5635 15.4349C78.5635 16.3847 79.3149 16.9909 80.3463 16.9909Z" fill="black"/>
<path d="M86.6357 16.9909C87.3724 16.9909 87.9961 16.652 88.3154 16.084H88.3989V16.905H89.4106V9.67871H88.3547V12.5329H88.2761C87.9863 11.9602 87.3675 11.6213 86.6357 11.6213C85.2851 11.6213 84.4158 12.6618 84.4158 14.3037C84.4158 15.9504 85.2753 16.9909 86.6357 16.9909ZM86.9353 12.5425C87.8193 12.5425 88.3743 13.225 88.3743 14.3085C88.3743 15.3967 87.8242 16.0697 86.9353 16.0697C86.0414 16.0697 85.5061 15.4063 85.5061 14.3037C85.5061 13.2107 86.0464 12.5425 86.9353 12.5425Z" fill="black"/>
<path d="M96.2579 17.0052C97.8197 17.0052 98.7774 15.9886 98.7774 14.3037C98.7774 12.6284 97.8148 11.607 96.2579 11.607C94.6961 11.607 93.7335 12.6284 93.7335 14.3037C93.7335 15.9886 94.6912 17.0052 96.2579 17.0052ZM96.2579 16.0936C95.3395 16.0936 94.8238 15.4397 94.8238 14.3037C94.8238 13.1773 95.3395 12.5186 96.2579 12.5186C97.1714 12.5186 97.692 13.1773 97.692 14.3037C97.692 15.4349 97.1714 16.0936 96.2579 16.0936Z" fill="black"/>
<path d="M100.175 16.905H101.231V13.8646C101.231 13.0532 101.727 12.5473 102.508 12.5473C103.289 12.5473 103.662 12.9625 103.662 13.7978V16.905H104.718V13.54C104.718 12.3038 104.06 11.607 102.867 11.607C102.061 11.607 101.531 11.9554 101.27 12.5329H101.192V11.7072H100.175V16.905Z" fill="black"/>
<path d="M109.581 10.4137V11.7311H108.732V12.595H109.581V15.5303C109.581 16.5327 110.048 16.9336 111.222 16.9336C111.428 16.9336 111.624 16.9097 111.796 16.8811V16.0267C111.649 16.0411 111.556 16.0506 111.394 16.0506C110.868 16.0506 110.637 15.812 110.637 15.2678V12.595H111.796V11.7311H110.637V10.4137H109.581Z" fill="black"/>
<path d="M113.214 16.905H114.27V13.8694C114.27 13.0818 114.751 12.552 115.615 12.552C116.362 12.552 116.76 12.972 116.76 13.8025V16.905H117.816V13.5496C117.816 12.3134 117.113 11.6118 115.974 11.6118C115.168 11.6118 114.604 11.9602 114.343 12.5425H114.26V9.67871H113.214V16.905Z" fill="black"/>
<path d="M121.625 12.4804C122.406 12.4804 122.916 13.0102 122.941 13.8264H120.24C120.299 13.015 120.844 12.4804 121.625 12.4804ZM122.936 15.5017C122.74 15.9074 122.303 16.1317 121.664 16.1317C120.819 16.1317 120.274 15.5542 120.24 14.6426V14.5853H124.017V14.2273C124.017 12.595 123.118 11.607 121.63 11.607C120.122 11.607 119.164 12.6618 119.164 14.3228C119.164 15.9838 120.102 17.0052 121.635 17.0052C122.857 17.0052 123.712 16.4324 123.953 15.5017H122.936Z" fill="black"/>
<path d="M29.3109 23.346C29.3366 21.4128 30.4048 19.5836 32.0995 18.5711C31.0304 17.0872 29.2397 16.1464 27.3767 16.0898C25.3896 15.8871 23.4632 17.2453 22.4506 17.2453C21.4184 17.2453 19.8593 16.1099 18.1805 16.1435C15.9922 16.2122 13.9522 17.4213 12.8875 19.2805C10.599 23.1312 12.306 28.7904 14.4983 31.903C15.5951 33.4272 16.877 35.1297 18.5543 35.0693C20.1957 35.0031 20.8087 34.0522 22.79 34.0522C24.7528 34.0522 25.328 35.0693 27.0393 35.0309C28.8006 35.0031 29.9102 33.5 30.9686 31.9614C31.7566 30.8754 32.3631 29.6751 32.7654 28.405C30.6956 27.5543 29.3134 25.53 29.3109 23.346Z" fill="black"/>
<path d="M26.0785 14.0428C27.0388 12.9224 27.5119 11.4824 27.3973 10.0286C25.9302 10.1783 24.575 10.8598 23.6017 11.9371C22.6499 12.9897 22.1547 14.4044 22.2483 15.8027C23.716 15.8174 25.1588 15.1544 26.0785 14.0428Z" fill="black"/>
<path d="M4.32122 45.4672L3.93853 46.391L4.32122 45.4672ZM0.532843 41.6788L-0.391036 42.0615L0.532843 41.6788ZM141.467 41.6788L140.543 41.2961L141.467 41.6788ZM137.679 45.4672L137.296 44.5433L137.679 45.4672ZM137.679 0.532843L138.061 -0.391036L137.679 0.532843ZM141.467 4.32122L140.543 4.7039L141.467 4.32122ZM10.5 1H131.5V-1H10.5V1ZM141 10.5V35.5H143V10.5H141ZM131.5 45H10.5V47H131.5V45ZM1 35.5V10.5H-1V35.5H1ZM10.5 45C8.85552 45 7.67225 44.9995 6.73798 44.9357C5.8127 44.8726 5.20494 44.7508 4.7039 44.5433L3.93853 46.391C4.72389 46.7163 5.57473 46.861 6.60184 46.9311C7.61997 47.0005 8.88289 47 10.5 47V45ZM-1 35.5C-1 37.1171 -1.00054 38.38 -0.931075 39.3982C-0.860996 40.4253 -0.716341 41.2761 -0.391036 42.0615L1.45672 41.2961C1.24918 40.7951 1.12742 40.1873 1.06429 39.262C1.00054 38.3278 1 37.1445 1 35.5H-1ZM4.7039 44.5433C3.23373 43.9343 2.06569 42.7663 1.45672 41.2961L-0.391036 42.0615C0.420915 44.0217 1.97831 45.5791 3.93853 46.391L4.7039 44.5433ZM141 35.5C141 37.1445 140.999 38.3278 140.936 39.262C140.873 40.1873 140.751 40.7951 140.543 41.2961L142.391 42.0615C142.716 41.2761 142.861 40.4253 142.931 39.3982C143.001 38.38 143 37.1171 143 35.5H141ZM131.5 47C133.117 47 134.38 47.0005 135.398 46.9311C136.425 46.861 137.276 46.7163 138.061 46.391L137.296 44.5433C136.795 44.7508 136.187 44.8726 135.262 44.9357C134.328 44.9995 133.144 45 131.5 45V47ZM140.543 41.2961C139.934 42.7663 138.766 43.9343 137.296 44.5433L138.061 46.391C140.022 45.5791 141.579 44.0217 142.391 42.0615L140.543 41.2961ZM131.5 1C133.144 1 134.328 1.00054 135.262 1.06429C136.187 1.12742 136.795 1.24918 137.296 1.45672L138.061 -0.391036C137.276 -0.716341 136.425 -0.860996 135.398 -0.931075C134.38 -1.00054 133.117 -1 131.5 -1V1ZM143 10.5C143 8.88289 143.001 7.61997 142.931 6.60184C142.861 5.57473 142.716 4.72389 142.391 3.93853L140.543 4.7039C140.751 5.20494 140.873 5.8127 140.936 6.73798C140.999 7.67225 141 8.85552 141 10.5H143ZM137.296 1.45672C138.766 2.06569 139.934 3.23373 140.543 4.7039L142.391 3.93853C141.579 1.97831 140.022 0.420915 138.061 -0.391036L137.296 1.45672ZM10.5 -1C8.88289 -1 7.61997 -1.00054 6.60184 -0.931075C5.57473 -0.860996 4.72389 -0.716341 3.93853 -0.391036L4.7039 1.45672C5.20494 1.24918 5.8127 1.12742 6.73798 1.06429C7.67225 1.00054 8.85552 1 10.5 1V-1ZM1 10.5C1 8.85552 1.00054 7.67225 1.06429 6.73798C1.12742 5.8127 1.24918 5.20494 1.45672 4.7039L-0.391036 3.93853C-0.716341 4.72389 -0.860996 5.57473 -0.931075 6.60184C-1.00054 7.61997 -1 8.88289 -1 10.5H1ZM3.93853 -0.391036C1.97831 0.420915 0.420915 1.97831 -0.391036 3.93853L1.45672 4.7039C2.06569 3.23373 3.23373 2.06569 4.7039 1.45672L3.93853 -0.391036Z" fill="black"/>
</svg>
