<svg width="1024" height="1024" viewBox="0 0 1024 1024" fill="none" xmlns="http://www.w3.org/2000/svg">
<g clip-path="url(#clip0_2725_55271)">
<rect width="1024" height="1024" rx="200" fill="url(#paint0_linear_2725_55271)"/>
<g opacity="0.7">
<path d="M376.342 94.4862C442.23 73.0779 512.249 67.5672 580.675 78.4048C649.101 89.2424 713.99 116.12 770.038 156.842C826.085 197.563 871.7 250.97 903.152 312.698C934.604 374.426 951 442.721 951 512" stroke="white" stroke-width="16"/>
<circle cx="950.5" cy="512.5" r="17.5" fill="white"/>
</g>
<g opacity="0.7">
<path d="M943.157 601.376C928.753 669.141 898.516 732.535 854.917 786.374C811.318 840.214 755.597 882.971 692.307 911.149C629.018 939.327 559.958 952.127 490.774 948.501C421.591 944.875 354.247 924.927 294.25 890.288" stroke="white" stroke-width="16"/>
<circle cx="294.067" cy="889.605" r="17.5" transform="rotate(120 294.067 889.605)" fill="white"/>
</g>
<g opacity="0.7">
<path d="M221.002 839.138C169.518 792.781 129.736 734.898 104.908 670.221C80.0809 605.543 70.9133 535.908 78.1549 467.009C85.3965 398.11 108.842 331.903 146.574 273.8C184.306 215.698 235.253 167.351 295.25 132.712" stroke="white" stroke-width="16"/>
<circle cx="295.933" cy="132.895" r="17.5" transform="rotate(-120 295.933 132.895)" fill="white"/>
</g>
<g opacity="0.4">
<path d="M723.263 276.702C760.345 310.091 788.999 351.782 806.881 398.367C824.763 444.952 831.366 495.107 826.151 544.733C820.935 594.359 804.048 642.045 776.871 683.894C749.694 725.743 712.998 760.566 669.785 785.515" stroke="white" stroke-width="16"/>
<circle cx="670.388" cy="787.286" r="12.6922" transform="rotate(60 670.388 787.286)" fill="white"/>
</g>
<g opacity="0.4">
<path d="M611.222 812.813C563.765 828.233 513.332 832.202 464.048 824.396C414.763 816.59 368.025 797.231 327.656 767.901C287.287 738.571 254.432 700.103 231.779 655.643C209.125 611.182 197.315 561.991 197.315 512.092" stroke="white" stroke-width="16"/>
<circle cx="195.481" cy="511.73" r="12.6922" transform="rotate(-180 195.481 511.73)" fill="white"/>
</g>
<g opacity="0.4">
<path d="M202.833 447.993C213.208 399.184 234.987 353.524 266.389 314.745C297.792 275.966 337.926 245.17 383.512 224.874C429.097 204.578 478.838 195.359 528.669 197.971C578.499 200.582 627.004 214.95 670.218 239.9" stroke="white" stroke-width="16"/>
<circle cx="671.45" cy="238.492" r="12.6922" transform="rotate(-60 671.45 238.492)" fill="white"/>
</g>
<g opacity="0.2">
<path d="M341.143 357.769C365.44 330.785 395.777 309.935 429.676 296.922C463.574 283.91 500.071 279.105 536.182 282.9C572.294 286.696 606.994 298.984 637.446 318.76C667.899 338.536 693.238 365.238 711.393 396.684" stroke="white" stroke-width="10"/>
<circle cx="711.984" cy="396.647" r="9.20365" transform="rotate(-30 711.984 396.647)" fill="white"/>
</g>
<g opacity="0.2">
<path d="M731.256 439.302C742.477 473.835 745.365 510.534 739.685 546.397C734.005 582.26 719.917 616.27 698.575 645.646C677.232 675.021 649.24 698.929 616.888 715.413C584.535 731.897 548.74 740.491 512.43 740.491" stroke="white" stroke-width="10"/>
<circle cx="512.166" cy="741.021" r="9.20365" transform="rotate(90 512.166 741.021)" fill="white"/>
</g>
<g opacity="0.2">
<path d="M465.782 736.473C430.265 728.923 397.039 713.075 368.821 690.225C340.603 667.374 318.193 638.169 303.424 604.998C288.656 571.827 281.947 535.632 283.848 499.371C285.748 463.111 296.203 427.815 314.358 396.369" stroke="white" stroke-width="10"/>
<circle cx="314.031" cy="395.877" r="9.20365" transform="rotate(-150 314.031 395.877)" fill="white"/>
</g>
<g filter="url(#filter0_d_2725_55271)">
<path d="M267.4 676.4C250.467 676.4 236.467 672.467 225.4 664.6C214.467 656.6 208.533 644.933 207.6 629.6H254.8C255.467 637.733 259.067 641.8 265.6 641.8C268 641.8 270 641.267 271.6 640.2C273.333 639 274.2 637.2 274.2 634.8C274.2 631.467 272.4 628.8 268.8 626.8C265.2 624.667 259.6 622.267 252 619.6C242.933 616.4 235.4 613.267 229.4 610.2C223.533 607.133 218.467 602.667 214.2 596.8C209.933 590.933 207.867 583.4 208 574.2C208 565 210.333 557.2 215 550.8C219.8 544.267 226.267 539.333 234.4 536C242.667 532.667 251.933 531 262.2 531C279.533 531 293.267 535 303.4 543C313.667 551 319.067 562.267 319.6 576.8H271.8C271.667 572.8 270.667 569.933 268.8 568.2C266.933 566.467 264.667 565.6 262 565.6C260.133 565.6 258.6 566.267 257.4 567.6C256.2 568.8 255.6 570.533 255.6 572.8C255.6 576 257.333 578.667 260.8 580.8C264.4 582.8 270.067 585.267 277.8 588.2C286.733 591.533 294.067 594.733 299.8 597.8C305.667 600.867 310.733 605.133 315 610.6C319.267 616.067 321.4 622.933 321.4 631.2C321.4 639.867 319.267 647.667 315 654.6C310.733 661.4 304.533 666.733 296.4 670.6C288.267 674.467 278.6 676.4 267.4 676.4ZM333 604C333 590 335.8 577.533 341.4 566.6C347.133 555.667 355.267 547.2 365.8 541.2C376.333 535.067 388.733 532 403 532C415.267 532 426.2 534.333 435.8 539C445.533 543.533 453.4 550 459.4 558.4C465.533 566.8 469.6 576.6 471.6 587.8H424.8C422.667 583.133 419.6 579.533 415.6 577C411.733 574.333 407.267 573 402.2 573C394.733 573 388.8 575.8 384.4 581.4C380.133 587 378 594.533 378 604C378 613.467 380.133 621 384.4 626.6C388.8 632.2 394.733 635 402.2 635C407.267 635 411.733 633.733 415.6 631.2C419.6 628.533 422.667 624.867 424.8 620.2H471.6C469.6 631.4 465.533 641.2 459.4 649.6C453.4 658 445.533 664.533 435.8 669.2C426.2 673.733 415.267 676 403 676C388.733 676 376.333 673 365.8 667C355.267 660.867 347.133 652.333 341.4 641.4C335.8 630.467 333 618 333 604ZM578.386 653.6H531.186L524.186 675H477.586L529.386 533.4H580.586L632.186 675H585.386L578.386 653.6ZM567.586 620.2L554.786 580.8L541.986 620.2H567.586ZM812.473 533.4V675H768.273V604.4L746.473 675H708.473L686.673 604.4V675H642.273V533.4H696.673L727.873 618.4L758.273 533.4H812.473Z" fill="white"/>
<path d="M310.4 490.4C293.467 490.4 279.467 486.467 268.4 478.6C257.467 470.6 251.533 458.933 250.6 443.6H297.8C298.467 451.733 302.067 455.8 308.6 455.8C311 455.8 313 455.267 314.6 454.2C316.333 453 317.2 451.2 317.2 448.8C317.2 445.467 315.4 442.8 311.8 440.8C308.2 438.667 302.6 436.267 295 433.6C285.933 430.4 278.4 427.267 272.4 424.2C266.533 421.133 261.467 416.667 257.2 410.8C252.933 404.933 250.867 397.4 251 388.2C251 379 253.333 371.2 258 364.8C262.8 358.267 269.267 353.333 277.4 350C285.667 346.667 294.933 345 305.2 345C322.533 345 336.267 349 346.4 357C356.667 365 362.067 376.267 362.6 390.8H314.8C314.667 386.8 313.667 383.933 311.8 382.2C309.933 380.467 307.667 379.6 305 379.6C303.133 379.6 301.6 380.267 300.4 381.6C299.2 382.8 298.6 384.533 298.6 386.8C298.6 390 300.333 392.667 303.8 394.8C307.4 396.8 313.067 399.267 320.8 402.2C329.733 405.533 337.067 408.733 342.8 411.8C348.667 414.867 353.733 419.133 358 424.6C362.267 430.067 364.4 436.933 364.4 445.2C364.4 453.867 362.267 461.667 358 468.6C353.733 475.4 347.533 480.733 339.4 484.6C331.267 488.467 321.6 490.4 310.4 490.4ZM491.2 347.4V382.6H453.6V489H409.2V382.6H372V347.4H491.2ZM572.242 490.4C558.909 490.4 546.642 487.267 535.442 481C524.376 474.733 515.576 466.067 509.042 455C502.509 443.933 499.242 431.467 499.242 417.6C499.242 403.733 502.509 391.267 509.042 380.2C515.576 369.133 524.376 360.533 535.442 354.4C546.642 348.133 558.909 345 572.242 345C585.576 345 597.776 348.133 608.842 354.4C619.909 360.533 628.642 369.133 635.042 380.2C641.576 391.267 644.842 403.733 644.842 417.6C644.842 431.467 641.576 443.933 635.042 455C628.642 466.067 619.842 474.733 608.642 481C597.576 487.267 585.442 490.4 572.242 490.4ZM572.242 449C581.042 449 587.842 446.2 592.642 440.6C597.442 434.867 599.842 427.2 599.842 417.6C599.842 407.867 597.442 400.2 592.642 394.6C587.842 388.867 581.042 386 572.242 386C563.309 386 556.442 388.867 551.642 394.6C546.842 400.2 544.442 407.867 544.442 417.6C544.442 427.2 546.842 434.867 551.642 440.6C556.442 446.2 563.309 449 572.242 449ZM776.659 396C776.659 404.933 774.593 413.067 770.459 420.4C766.326 427.6 760.193 433.333 752.059 437.6C744.059 441.867 734.326 444 722.859 444H705.259V489H660.859V347.4H722.859C740.193 347.4 753.459 351.8 762.659 360.6C771.993 369.4 776.659 381.2 776.659 396ZM717.859 409C727.059 409 731.659 404.667 731.659 396C731.659 387.333 727.059 383 717.859 383H705.259V409H717.859Z" fill="white"/>
</g>
</g>
<defs>
<filter id="filter0_d_2725_55271" x="127.6" y="278" width="764.874" height="491.4" filterUnits="userSpaceOnUse" color-interpolation-filters="sRGB">
<feFlood flood-opacity="0" result="BackgroundImageFix"/>
<feColorMatrix in="SourceAlpha" type="matrix" values="0 0 0 0 0 0 0 0 0 0 0 0 0 0 0 0 0 0 127 0" result="hardAlpha"/>
<feOffset dy="13"/>
<feGaussianBlur stdDeviation="40"/>
<feComposite in2="hardAlpha" operator="out"/>
<feColorMatrix type="matrix" values="0 0 0 0 0 0 0 0 0 0 0 0 0 0 0 0 0 0 0.13 0"/>
<feBlend mode="normal" in2="BackgroundImageFix" result="effect1_dropShadow_2725_55271"/>
<feBlend mode="normal" in="SourceGraphic" in2="effect1_dropShadow_2725_55271" result="shape"/>
</filter>
<linearGradient id="paint0_linear_2725_55271" x1="512" y1="0" x2="520.118" y2="1036.51" gradientUnits="userSpaceOnUse">
<stop stop-color="#FD6159"/>
<stop offset="1" stop-color="#F4291E"/>
</linearGradient>
<clipPath id="clip0_2725_55271">
<rect width="1024" height="1024" rx="200" fill="white"/>
</clipPath>
</defs>
</svg>
